# xmcd
#
# Track frame offsets:
#	150
#	16246
#	40279
#	56871
#	72009
#	88531
#	106459
#	122686
#	143210
#	161490
#	175515
#	192608
#	212560
#	236835
#	255493
#	287435
#	311458
#	328078
#
# Disc length: 4590 seconds
#
# Revision: 1
# Processed by: cddbd v1.4PL0 Copyright (c) Steve Scherf et al.
# Submitted via: audiograbber 1.80
#
DISCID=fd11ec12
DTITLE=Vengaboys - Singles Collection 2000
DYEAR=1900
DGENRE=
TTITLE0=Shalala lala
TTITLE1=Kiss (When the sun don´t shine)
TTITLE2=We like to party!
TTITLE3=Boom Boom Boom
TTITLE4=Ho ho Vengaboys
TTITLE5=Up and down
TTITLE6=We´re going to Ibiza
TTITLE7=48 hours
TTITLE8=Parada de tettas
TTITLE9=To Brazil
TTITLE10=Movin´ around
TTITLE11=Overwhlem yourself
TTITLE12=You and me
TTITLE13=The Vengabeat
TTITLE14=Paradise...
TTITLE15=Superfly slick dick
TTITLE16=All night passion
TTITLE17=Shalala lala (Karaoke Version)
EXTD=
EXTT0=
EXTT1=
EXTT2=
EXTT3=
EXTT4=
EXTT5=
EXTT6=
EXTT7=
EXTT8=
EXTT9=
EXTT10=
EXTT11=
EXTT12=
EXTT13=
EXTT14=
EXTT15=
EXTT16=
EXTT17=
PLAYORDER=
